<?xml version="1.0" encoding="UTF-8"?>
<!DOCTYPE svg PUBLIC "-//W3C//DTD SVG 1.1//EN" "http://www.w3.org/Graphics/SVG/1.1/DTD/svg11.dtd">
<!-- Creator: CorelDRAW 2018 (64-Bit) -->
<svg xmlns="http://www.w3.org/2000/svg" xml:space="preserve" width="200px" height="200px" version="1.1" style="shape-rendering:geometricPrecision; text-rendering:geometricPrecision; image-rendering:optimizeQuality; fill-rule:evenodd; clip-rule:evenodd"
viewBox="0 0 200 200"
 xmlns:xlink="http://www.w3.org/1999/xlink">
 <defs>
  <style type="text/css">
   <![CDATA[
    .fil0 {fill:none}
    .fil1 {fill:#0084FF}
    .fil2 {fill:#6699FF}
    .fil3 {fill:red}
   ]]>
  </style>
 </defs>
 <g id="Layer_x0020_1">
  <metadata id="CorelCorpID_0Corel-Layer"/>
  <rect class="fil0" width="200" height="200"/>
  <polygon class="fil1" points="90.85,119.53 90.85,110.52 25.76,70.46 40.28,43.92 31.26,41.92 16.24,73.46 "/>
  <path class="fil2" d="M89.85 103.51l-56.58 -34.05 11.01 -24.54 5.51 1 -9.51 23.04c10.51,1 51.78,24.19 49.57,29.04l0 5.51z"/>
  <path class="fil1" d="M43.28 66.95c3.91,-1.51 49.49,22.71 46.57,26.04 0.5,2 0.5,-25.54 0.5,-25.54 -12.69,-6.84 -25.37,-13.68 -38.06,-20.53 -3,6.68 -6.01,13.36 -9.01,20.03z"/>
  <path class="fil1" d="M48.29 109.51c0,0 10.51,0 11.01,6.01 6.51,9.02 -27.04,37.06 -27.54,38.06 -0.5,1 -0.5,4 -0.5,4l57.59 -35.55 -27.04 -16.52 -13.52 4z"/>
  <path class="fil1" d="M120.89 105.01l-26.04 17.52 57.59 35.55 -1.51 -4.5c0,0 -34.04,-26.04 -26.53,-41.06 4,-1.5 10.51,-2.5 10.51,-2.5l-2 -2.01 -12.02 -3z"/>
  <path class="fil3" d="M94.85 117.53c9.22,-13.83 10.02,-17.02 40.95,-26.01 -4.01,-0.77 -9.81,-1.32 -18.17,-1.22 8.27,-2.84 16.67,-2.09 22.86,-0.69 5.67,-2.73 11.33,-6.85 17.28,-11.18 -3.98,-1.03 -10.38,-1.88 -20.61,-1.77 8.65,-2.97 17.45,-2 23.71,-0.48 4.87,-3.51 9.97,-7.02 15.46,-9.95 -3.76,-1.24 -10.48,-2.42 -22.39,-2.28 10.02,-3.45 20.23,-1.6 26.48,0.26 5.14,-2.34 10.62,-4.08 16.58,-4.77 -1.17,-5.86 -20.53,-17.21 -43.72,-15.87l-16.37 11.87 7.1 -10.65c-12.98,2.69 -26.53,9.81 -38.37,24.27l-1.77 10.41 -0.82 -7.11c-16.1,20.45 -8.2,45.17 -8.2,45.17z"/>
 </g>
</svg>
