<?xml version="1.0" encoding="UTF-8"?>
<!DOCTYPE svg PUBLIC "-//W3C//DTD SVG 1.1//EN" "http://www.w3.org/Graphics/SVG/1.1/DTD/svg11.dtd">
<!-- Creator: CorelDRAW 2018 (64-Bit) -->
<svg xmlns="http://www.w3.org/2000/svg" xml:space="preserve" width="200px" height="200px" version="1.1" style="shape-rendering:geometricPrecision; text-rendering:geometricPrecision; image-rendering:optimizeQuality; fill-rule:evenodd; clip-rule:evenodd"
viewBox="0 0 200 200"
 xmlns:xlink="http://www.w3.org/1999/xlink">
 <defs>
  <style type="text/css">
   <![CDATA[
    .fil0 {fill:none}
    .fil1 {fill:#99FFFF}
    .fil2 {fill:#0084FF;fill-rule:nonzero}
   ]]>
  </style>
 </defs>
 <g id="Layer_x0020_1">
  <metadata id="CorelCorpID_0Corel-Layer"/>
  <rect class="fil0" width="200" height="200"/>
  <g id="_2335489091408">
   <path class="fil1" d="M100 18.36c7.19,0 14.13,1.03 20.7,2.94 -10.6,5.68 -17.81,16.86 -17.81,29.73 0,18.61 15.08,33.7 33.69,33.7 14.35,0 26.6,-8.96 31.46,-21.59 3.87,8.98 6.02,18.88 6.02,29.28 0,40.91 -33.16,74.07 -74.06,74.07 -40.9,0 -74.06,-33.16 -74.06,-74.07 0,-40.9 33.16,-74.06 74.06,-74.06z"/>
   <path class="fil2" d="M144.2 23.68c17.41,50.29 -14.48,102.95 -45.31,123.56 -2.55,-3.82 -5.11,-7.64 -7.66,-11.46 -5.17,14.51 -10.34,29.03 -15.5,43.54 15.38,0.77 30.77,1.54 46.16,2.32 -2.56,-3.83 -5.11,-7.65 -7.67,-11.47 52.49,-35.09 64.62,-94.69 29.98,-146.49z"/>
   <path class="fil2" d="M144.77 23.68c-6.11,43.12 -49,69.55 -79.15,73.04 -0.43,-3.74 -0.86,-7.48 -1.29,-11.21 -9.19,8.63 -18.37,17.27 -27.55,25.91 10.91,6.31 21.82,12.62 32.74,18.93 -0.43,-3.74 -0.87,-7.48 -1.3,-11.21 51.32,-5.94 82.42,-44.8 76.55,-95.46z"/>
   <path class="fil2" d="M144.07 24.98c-12.43,24.84 -43.72,32.13 -62.65,28.13 0.49,-2.34 0.99,-4.69 1.48,-7.04 -7.3,3.36 -14.6,6.73 -21.9,10.09 5.32,6.03 10.64,12.05 15.96,18.08 0.49,-2.35 0.99,-4.7 1.48,-7.04 32.24,6.8 58.92,-10.4 65.63,-42.22z"/>
  </g>
 </g>
</svg>
